{"title":"Minions.2015.HDRip.HC.480p.x264.AAC-VYTO [P2PDL]","uid":12294857,"size":327010890,"categoryP":"video","categoryS":"movies","magnet":"?xt=urn:btih:6e51d98f2c347741e2c470033e0fc46cb5520a5f&amp;dn=Minions.2015.HDRip.HC.480p.x264.AAC-VYTO+%5BP2PDL%5D&amp;tr=udp%3A%2F%2Ftracker.openbittorrent.com%3A80&amp;tr=udp%3A%2F%2Fopen.demonii.com%3A1337&amp;tr=udp%3A%2F%2Ftracker.coppersurfer.tk%3A6969&amp;tr=udp%3A%2F%2Fexodus.desync.com%3A6969","seeders":18,"leechers":10,"uploader":"ValidusVyto","files":6,"time":1440606638,"description":"____    ____ ____    ____ .___________.  ______   \n     /   /      /   / |           | /  __    \n    /   /      /   /  `---|  |----`|  |  |  | \n        /     _    _/       |  |     |  |  |  | \n       /        |  |         |  |     |  `--'  | \n    __/         |__|         |__|      ______/  \n                                                  \nPresenting Small Encodes with quality for years!\n                                                                                                   \n                                                                                                   \n\nMinions.2015.HDRip.HC.480p.x264.AAC-VYTO\n\n\nGenre: Animation, Comedy, Family   &lt;a href=&quot;\nhttp://www.imdb.com/title/tt2293640/&quot; rel=&quot;nofollow&quot; target=&quot;_NEW&quot;&gt;\nhttp://www.imdb.com/title/tt2293640/&lt;/a&gt;\n\n\nGeneral\nFormat                         : MPEG-4\nFile size                      : 307 MiB\nDuration                       : 1h 30mn\nOverall bit rate               : 472 Kbps\n\nVideo\nFormat                         : AVC\nBit rate                       : 437 Kbps\nWidth                          : 720 pixels\nHeight                         : 384 pixels\nDisplay aspect ratio           : 1.85:1\nFrame rate mode                : Constant\nFrame rate                     : 24.000 fps\nBit depth                      : 8 bits\nStream size                    : 284 MiB (93%)\nWriting library                : x264 core 148 r2597 \n\nAudio\nFormat                         : AAC\nBit rate mode                  : Variable\nBit rate                       : 32.0 Kbps\nChannel(s)                     : 2 channels\nChannel positions              : Front: L R \nSampling rate                  : 48.0 KHz\nStream size                    : 20.8 MiB (7%)\nLanguage                       : English\n\nSubtitle                       : N/a\nSource                     \t   : 720p.HC.HDRip.X264.AC3-EVO\n\nScreenshots:\n\n &lt;a href=&quot;\nhttp://ititli.com/so&quot; rel=&quot;nofollow&quot; target=&quot;_NEW&quot;&gt;\nhttp://ititli.com/so&lt;/a&gt; &lt;a href=&quot;\nhttp://ititli.com/sG&quot; rel=&quot;nofollow&quot; target=&quot;_NEW&quot;&gt;\nhttp://ititli.com/sG&lt;/a&gt; &lt;a href=&quot;\nhttp://ititli.com/sH&quot; rel=&quot;nofollow&quot; target=&quot;_NEW&quot;&gt;\nhttp://ititli.com/sH&lt;/a&gt; &lt;a href=&quot;\nhttp://ititli.com/sM&quot; rel=&quot;nofollow&quot; target=&quot;_NEW&quot;&gt;\nhttp://ititli.com/sM&lt;/a&gt; &lt;a href=&quot;\nhttp://ititli.com/sU&quot; rel=&quot;nofollow&quot; target=&quot;_NEW&quot;&gt;\nhttp://ititli.com/sU&lt;/a&gt; &lt;a href=&quot;\nhttp://ititli.com/sh&quot; rel=&quot;nofollow&quot; target=&quot;_NEW&quot;&gt;\nhttp://ititli.com/sh&lt;/a&gt; &lt;a href=&quot;\nhttp://ititli.com/ss&quot; rel=&quot;nofollow&quot; target=&quot;_NEW&quot;&gt;\nhttp://ititli.com/ss&lt;/a&gt; &lt;a href=&quot;\nhttp://ititli.com/sY&quot; rel=&quot;nofollow&quot; target=&quot;_NEW&quot;&gt;\nhttp://ititli.com/sY&lt;/a&gt; &lt;a href=&quot;\nhttp://ititli.com/s4&quot; rel=&quot;nofollow&quot; target=&quot;_NEW&quot;&gt;\nhttp://ititli.com/s4&lt;/a&gt; &lt;a href=&quot;\nhttp://ititli.com/sK&quot; rel=&quot;nofollow&quot; target=&quot;_NEW&quot;&gt;\nhttp://ititli.com/sK&lt;/a&gt; &lt;a href=&quot;\nhttp://ititli.com/sV&quot; rel=&quot;nofollow&quot; target=&quot;_NEW&quot;&gt;\nhttp://ititli.com/sV&lt;/a&gt; &lt;a href=&quot;\nhttp://ititli.com/st&quot; rel=&quot;nofollow&quot; target=&quot;_NEW&quot;&gt;\nhttp://ititli.com/st&lt;/a&gt;\n\n----------------------------------------------------------------------------------------------------\n\n\nEncoder Notes: Looking For Early Access To Anything You Can Provide DVDScr, R5, DVDR, BluRay, Direct\nAudio, Music Releases and Seedboxes. If You Got anything to offer please contact us.\n\nSupport us by donating BC - 1FgwdzPsd1y25Gea8wP1qni35uGCtmkRCD","torrent":{"xt":"urn:btih:6e51d98f2c347741e2c470033e0fc46cb5520a5f","amp;dn":"Minions.2015.HDRip.HC.480p.x264.AAC-VYTO+%5BP2PDL%5D","amp;tr":["udp%3A%2F%2Ftracker.openbittorrent.com%3A80","udp%3A%2F%2Fopen.demonii.com%3A1337","udp%3A%2F%2Ftracker.coppersurfer.tk%3A6969","udp%3A%2F%2Fexodus.desync.com%3A6969"],"infoHash":"6e51d98f2c347741e2c470033e0fc46cb5520a5f","infoHashBuffer":{"type":"Buffer","data":[110,81,217,143,44,52,119,65,226,196,112,3,62,15,196,108,181,82,10,95]},"announce":[],"urlList":[]}}